Hanif_Shallow_7_5_grf.mot
version=1
nRows=52
nColumns=19
inDegrees=yes
endheader
time	right_ground_force_vx	right_ground_force_vy	right_ground_force_vz	right_ground_force_px	right_ground_force_py	right_ground_force_pz	right_ground_torque_x	right_ground_torque_y	right_ground_torque_z	left_ground_force_vx	left_ground_force_vy	left_ground_force_vz	left_ground_force_px	left_ground_force_py	left_ground_force_pz	left_ground_torque_x	left_ground_torque_y	left_ground_torque_z
6.100000	3.983420	291.933000	64.421500	0.181210	0.000000	-1.443290	-18.249500	5.754280	-4.537810	-6.836190	296.925000	-66.914100	0.186912	0.000000	-0.964229	18.285700	-5.032850	-2.855010
6.105000	3.738950	292.353000	65.244200	0.180936	0.000000	-1.444340	-17.973000	5.719200	-4.626010	-7.186210	295.864000	-66.462800	0.185894	0.000000	-0.964037	18.169400	-5.062200	-3.148360
6.110000	3.106800	292.699000	65.436200	0.181329	0.000000	-1.443380	-18.285300	5.583100	-4.533370	-7.103780	296.925000	-66.821300	0.186667	0.000000	-0.964717	18.433100	-4.954190	-2.945770
6.115000	3.124820	291.627000	65.703500	0.181672	0.000000	-1.443460	-18.194200	5.536000	-4.412880	-7.079810	295.867000	-66.280000	0.186952	0.000000	-0.964700	18.365600	-5.051180	-2.824710
6.120000	2.306240	292.734000	65.374800	0.181762	0.000000	-1.443790	-18.177100	5.513300	-4.405960	-6.562580	296.914000	-67.103600	0.186676	0.000000	-0.964957	18.497800	-5.100510	-2.913510
6.125000	2.092770	294.575000	65.120400	0.181551	0.000000	-1.444210	-18.170600	5.600930	-4.490470	-6.400700	298.339000	-67.654200	0.186838	0.000000	-0.965079	18.617100	-4.990550	-2.906780
6.130000	2.467980	292.724000	64.910300	0.181797	0.000000	-1.443840	-18.161300	5.531670	-4.397990	-6.135310	300.188000	-67.306200	0.186736	0.000000	-0.964321	18.502300	-5.133830	-2.946470
6.135000	2.461650	293.088000	64.838400	0.182524	0.000000	-1.444950	-17.859000	5.461810	-4.197640	-5.959940	299.464000	-67.674400	0.186525	0.000000	-0.964866	18.616500	-5.052770	-3.016290
6.140000	2.101900	291.604000	64.828200	0.182513	0.000000	-1.442930	-18.360800	5.432210	-4.173040	-6.055820	299.428000	-68.036700	0.185669	0.000000	-0.965236	18.728100	-5.188550	-3.248170
6.145000	1.453190	292.034000	64.037000	0.183352	0.000000	-1.443160	-18.329900	5.421540	-3.926620	-5.953770	297.625000	-67.507100	0.185827	0.000000	-0.964883	18.509800	-5.179310	-3.176920
6.150000	1.811880	291.649000	64.203800	0.183524	0.000000	-1.442690	-18.437700	5.501280	-3.852230	-5.793600	299.068000	-68.053200	0.185482	0.000000	-0.964500	18.478700	-5.082090	-3.329300
6.155000	0.923476	293.884000	64.844800	0.183934	0.000000	-1.442100	-18.764600	5.424820	-3.767510	-5.773150	297.234000	-67.778900	0.185652	0.000000	-0.965172	18.566900	-5.098590	-3.241940
6.160000	0.717480	294.643000	64.051200	0.183937	0.000000	-1.442890	-18.584600	5.406380	-3.790950	-5.341260	297.239000	-68.059400	0.185280	0.000000	-0.964573	18.382100	-5.140060	-3.352430
6.165000	0.690570	295.684000	63.597700	0.184764	0.000000	-1.442000	-18.914800	5.348060	-3.572630	-5.065570	295.749000	-67.624200	0.184391	0.000000	-0.964168	18.165300	-5.111930	-3.617880
6.170000	0.613438	294.603000	64.043100	0.184857	0.000000	-1.441520	-18.986500	5.263010	-3.536460	-5.568640	293.225000	-67.061700	0.184928	0.000000	-0.965099	18.294000	-5.150810	-3.393480
6.175000	0.695430	295.741000	63.770900	0.184924	0.000000	-1.441450	-19.078700	5.323680	-3.527510	-5.998420	291.056000	-66.509400	0.184496	0.000000	-0.965292	18.222900	-5.144260	-3.487150
6.180000	0.290003	297.282000	64.031100	0.186292	0.000000	-1.442200	-18.963900	5.159140	-3.157120	-5.561030	293.586000	-66.428600	0.185356	0.000000	-0.964757	18.216100	-5.117230	-3.283710
6.185000	-0.502633	297.005000	63.792600	0.185817	0.000000	-1.443410	-18.596900	5.212540	-3.280320	-5.920900	292.156000	-66.148800	0.184846	0.000000	-0.964162	17.959100	-5.090640	-3.419580
6.190000	-0.413779	296.226000	63.784700	0.186734	0.000000	-1.440870	-19.300700	5.207340	-2.984920	-6.097260	291.781000	-66.483800	0.185221	0.000000	-0.964304	17.979800	-5.026010	-3.305600
6.195000	-0.693811	296.969000	63.517100	0.186717	0.000000	-1.440920	-19.337500	5.062990	-3.032520	-5.640300	292.135000	-65.969100	0.184377	0.000000	-0.963994	17.904100	-5.124240	-3.561990
6.200000	-0.372733	299.123000	63.242200	0.186876	0.000000	-1.441730	-19.230700	5.123480	-3.012860	-5.890370	292.516000	-65.333500	0.184414	0.000000	-0.965165	18.273600	-5.092610	-3.567290
6.205000	-0.972501	297.383000	63.343500	0.187472	0.000000	-1.441180	-19.290700	5.051540	-2.805340	-5.971110	291.782000	-65.058000	0.184747	0.000000	-0.965770	18.407100	-5.105180	-3.450100
6.210000	-0.909119	297.310000	63.068700	0.188131	0.000000	-1.441210	-19.275400	5.061610	-2.601400	-6.049170	292.538000	-64.972600	0.184620	0.000000	-0.965260	18.307000	-5.142090	-3.495510
6.215000	-1.084740	295.888000	62.806000	0.188248	0.000000	-1.440440	-19.413900	4.913750	-2.575850	-5.701650	292.851000	-64.970300	0.184072	0.000000	-0.965387	18.357000	-5.141040	-3.674620
6.220000	-1.213380	297.313000	62.265500	0.187391	0.000000	-1.439660	-19.742000	5.000570	-2.849080	-5.876220	292.165000	-64.590800	0.184555	0.000000	-0.965463	18.339700	-5.110880	-3.521880
6.225000	-1.199800	296.575000	62.258900	0.188047	0.000000	-1.440500	-19.442500	4.937050	-2.648370	-5.940840	292.185000	-64.144400	0.185740	0.000000	-0.965911	18.473900	-5.075590	-3.171170
6.230000	-1.736100	295.843000	62.149800	0.188819	0.000000	-1.439510	-19.694700	4.733240	-2.435070	-6.464220	291.138000	-63.755500	0.185239	0.000000	-0.966232	18.509500	-5.054310	-3.307240
6.235000	-1.487870	295.829000	61.779200	0.188667	0.000000	-1.439210	-19.778700	4.697030	-2.497070	-7.366020	292.199000	-63.533900	0.185611	0.000000	-0.965268	18.308300	-4.967990	-3.223270
6.240000	-2.060960	295.463000	60.639600	0.189215	0.000000	-1.438810	-19.881000	4.684130	-2.331030	-7.002300	292.547000	-63.083100	0.186169	0.000000	-0.965518	18.395600	-4.863400	-3.091230
6.245000	-2.055890	295.108000	60.522100	0.189340	0.000000	-1.438050	-20.082900	4.676740	-2.290290	-7.854550	292.597000	-62.244900	0.186680	0.000000	-0.966181	18.608800	-4.888530	-2.928400
6.250000	-2.405760	294.759000	60.339500	0.189501	0.000000	-1.438010	-20.074600	4.533300	-2.262820	-8.402320	289.357000	-61.596800	0.186283	0.000000	-0.966075	18.379000	-4.717400	-3.031980
6.255000	-2.965070	292.927000	59.632700	0.189733	0.000000	-1.437850	-20.003000	4.345910	-2.206390	-8.725950	289.685000	-60.765300	0.186340	0.000000	-0.966932	18.652000	-4.648100	-3.039110
6.260000	-2.845550	296.916000	58.636700	0.190531	0.000000	-1.437550	-20.360400	4.267890	-2.039910	-8.339880	290.830000	-59.969000	0.187094	0.000000	-0.966573	18.616600	-4.696100	-2.835240
6.265000	-3.193860	293.625000	58.000900	0.191389	0.000000	-1.437360	-20.196800	4.052640	-1.783310	-7.261550	288.625000	-59.937900	0.185680	0.000000	-0.967111	18.614800	-4.792630	-3.219280
6.270000	-3.396790	291.781000	57.376200	0.191161	0.000000	-1.435860	-20.510400	4.046630	-1.836210	-6.000840	287.870000	-59.958400	0.185312	0.000000	-0.967002	18.513300	-4.765890	-3.339040
6.275000	-3.699720	294.680000	56.395800	0.191818	0.000000	-1.436330	-20.575500	3.816490	-1.719660	-4.890140	285.996000	-59.275300	0.184142	0.000000	-0.966859	18.336500	-4.906840	-3.648420
6.280000	-3.716380	292.442000	56.202800	0.191905	0.000000	-1.436150	-20.469900	3.569170	-1.719040	-4.158470	281.709000	-58.712200	0.183529	0.000000	-0.967095	18.117200	-4.831540	-3.779150
6.285000	-4.513620	289.872000	56.017800	0.191562	0.000000	-1.435100	-20.600200	3.305520	-1.836610	-3.682900	279.029000	-57.929000	0.181495	0.000000	-0.967608	18.081800	-4.942620	-4.310400
6.290000	-4.896130	286.237000	55.122800	0.191835	0.000000	-1.435010	-20.370100	2.996360	-1.779810	-3.201410	276.926000	-56.689000	0.181347	0.000000	-0.966148	17.534100	-4.899780	-4.337550
6.295000	-5.321220	283.587000	54.766300	0.191256	0.000000	-1.435080	-20.163800	2.839590	-1.950960	-3.895660	272.217000	-55.765000	0.180538	0.000000	-0.966890	17.448700	-4.808380	-4.484280
6.300000	-6.243150	279.140000	53.525700	0.190347	0.000000	-1.435420	-19.760700	2.683860	-2.194590	-4.310210	269.683000	-54.404900	0.179800	0.000000	-0.966162	17.095700	-4.712480	-4.663780
6.305000	-5.946480	273.568000	52.677900	0.189773	0.000000	-1.435550	-19.322500	2.447540	-2.349690	-5.278410	267.812000	-53.374900	0.179173	0.000000	-0.966025	16.954100	-4.593360	-4.817640
6.310000	-5.430500	269.381000	51.729800	0.189000	0.000000	-1.435340	-19.075700	2.214070	-2.573470	-6.409320	261.279000	-52.059300	0.178847	0.000000	-0.966579	16.703400	-4.422080	-4.783920
6.315000	-5.192780	261.280000	49.304000	0.187549	0.000000	-1.434710	-18.666900	2.328300	-2.859830	-7.563380	259.013000	-50.916300	0.178958	0.000000	-0.965435	16.274000	-4.112310	-4.759470
6.320000	-4.013930	257.411000	48.162600	0.185574	0.000000	-1.434440	-18.449300	2.288500	-3.361400	-8.354520	252.493000	-49.879600	0.178035	0.000000	-0.965628	15.926100	-3.986410	-4.871470
6.325000	-3.577100	252.150000	46.168100	0.184197	0.000000	-1.435070	-17.910100	2.174810	-3.673580	-9.900680	248.147000	-47.925700	0.178468	0.000000	-0.966329	15.848800	-3.764750	-4.694140
6.330000	-2.992380	247.651000	44.312300	0.183285	0.000000	-1.435890	-17.381900	2.105980	-3.857670	-10.760500	244.183000	-45.828700	0.178559	0.000000	-0.966389	15.624900	-3.623210	-4.611950
6.335000	-2.596650	241.955000	41.592800	0.181635	0.000000	-1.435090	-17.174100	2.162820	-4.171440	-11.000300	240.775000	-44.892100	0.177926	0.000000	-0.966950	15.539300	-3.388160	-4.736640
6.340000	-2.911890	239.019000	39.489800	0.180625	0.000000	-1.434650	-17.073200	2.065520	-4.381730	-10.128300	235.014000	-42.928700	0.178368	0.000000	-0.967338	15.254600	-3.390240	-4.515090
6.345000	-2.667770	233.804000	37.638200	0.179480	0.000000	-1.433300	-17.011900	1.933020	-4.579680	-10.240900	230.686000	-40.940600	0.177444	0.000000	-0.968441	15.229700	-3.255260	-4.670660
6.350000	-3.162230	232.969000	35.912500	0.179441	0.000000	-1.433640	-16.876600	1.930770	-4.570640	-10.693100	226.273000	-38.738500	0.176143	0.000000	-0.969947	15.289600	-3.198870	-4.886280
6.355000	-3.042390	229.205000	33.672700	0.179076	0.000000	-1.433060	-16.734600	1.766190	-4.607230	-7.965140	224.806000	-37.472000	0.176240	0.000000	-0.969901	15.141700	-3.237950	-4.861220
